<svg width="591" height="600" viewBox="0 0 591 600" fill="none" xmlns="http://www.w3.org/2000/svg">
<path d="M504.95 6.60087C440.55 72.1009 376.05 137.801 310.75 204.201C302.15 212.901 288.35 213.001 279.75 204.201C214.75 138.201 150.05 72.4009 85.2502 6.60087C76.6502 -2.09913 62.8502 -1.99914 54.3502 6.70086C38.6502 22.9009 23.2502 39.0009 7.25023 55.5009C-1.24977 64.3009 -1.04977 78.5009 7.45023 87.2009C70.5502 151.401 135.35 217.301 201.05 284.201C209.65 292.901 209.55 307.001 201.05 315.801C135.85 382.201 70.8502 448.301 6.35022 513.901C-2.14978 522.601 -2.14978 536.701 6.55022 545.301L54.3502 593.201C62.9502 601.801 76.9502 601.801 85.4502 593.101L279.65 395.801C288.25 387.101 302.05 387.101 310.65 395.801C375.35 461.601 439.85 527.201 504.85 593.301C513.45 602.001 527.35 602.101 535.85 593.401C551.85 577.201 567.55 561.201 583.45 545.101C592.05 536.401 592.05 522.201 583.55 513.501C519.75 448.501 455.05 382.601 389.35 315.701C380.75 307.001 380.75 292.801 389.35 284.101C454.55 217.701 519.45 151.601 583.85 85.9009C592.45 77.2009 592.35 63.1009 583.75 54.4009L535.95 6.30087C527.45 -2.19913 513.55 -2.09913 504.95 6.60087Z" fill="white"/>
</svg>
