<svg width="30" height="30" viewBox="0 0 30 30" fill="none" xmlns="http://www.w3.org/2000/svg">
<path fill-rule="evenodd" clip-rule="evenodd" d="M14.5627 29.1254C22.6054 29.1254 29.1254 22.6054 29.1254 14.5627C29.1254 6.51994 22.6054 0 14.5627 0C6.51994 0 0 6.51994 0 14.5627C0 22.6054 6.51994 29.1254 14.5627 29.1254ZM17.4334 6.29954C18.9334 6.55318 20.3677 6.99923 21.7059 7.60271C21.7175 7.60736 21.7272 7.61605 21.733 7.6272C24.104 11.0574 25.2743 14.9284 24.837 19.3837C24.8359 19.3931 24.8329 19.4022 24.8281 19.4103C24.8232 19.4185 24.8167 19.4255 24.809 19.4309C23.2186 20.5896 21.4438 21.4711 19.5596 22.0381C19.5463 22.0421 19.5321 22.0419 19.519 22.0375C19.5058 22.0331 19.4943 22.0248 19.4861 22.0136C19.0899 21.4705 18.7296 20.8985 18.4147 20.2977C18.4104 20.2894 18.4079 20.2803 18.4075 20.2709C18.407 20.2616 18.4085 20.2523 18.4119 20.2436C18.4152 20.2349 18.4205 20.2271 18.4271 20.2205C18.4338 20.214 18.4418 20.209 18.4506 20.2058C19.0217 19.9942 19.5657 19.7397 20.0887 19.4388C20.098 19.4333 20.1058 19.4255 20.1114 19.4162C20.117 19.4069 20.1202 19.3964 20.1207 19.3855C20.1213 19.3747 20.1191 19.3639 20.1144 19.3541C20.1097 19.3443 20.1027 19.3359 20.094 19.3295C19.9829 19.2481 19.8736 19.1633 19.7686 19.0776C19.759 19.0699 19.7474 19.0651 19.7352 19.0637C19.723 19.0623 19.7106 19.0644 19.6995 19.0697C16.3052 20.6125 12.5854 20.6125 9.15086 19.0697C9.1398 19.0647 9.12756 19.0629 9.11551 19.0644C9.10347 19.066 9.09209 19.0708 9.08264 19.0785C8.97769 19.1633 8.86749 19.2481 8.75729 19.3295C8.74862 19.336 8.74171 19.3446 8.73718 19.3545C8.73265 19.3643 8.73065 19.3752 8.73134 19.386C8.73203 19.3968 8.73541 19.4073 8.74116 19.4166C8.74691 19.4258 8.75485 19.4334 8.76428 19.4388C9.28912 19.7372 9.83656 19.9939 10.4016 20.2067C10.4383 20.2207 10.4558 20.2627 10.4374 20.2977C10.1295 20.8994 9.76921 21.4723 9.36514 22.0145C9.3566 22.0253 9.34502 22.0332 9.33192 22.0372C9.31881 22.0413 9.30479 22.0413 9.29167 22.0373C7.41068 21.4686 5.63878 20.5875 4.05014 19.4309C4.0426 19.4252 4.0363 19.4179 4.03164 19.4097C4.02698 19.4014 4.02405 19.3923 4.02303 19.3828C3.65657 15.5293 4.40261 11.6268 7.12439 7.62545C7.13109 7.61491 7.14086 7.60667 7.15238 7.60184C8.49141 6.99748 9.92577 6.55143 11.4248 6.29779C11.4384 6.29565 11.4522 6.29768 11.4646 6.30362C11.4769 6.30956 11.4872 6.31912 11.4939 6.33103C11.6937 6.67932 11.8738 7.03847 12.0336 7.4068C13.6244 7.16911 15.2417 7.16911 16.8325 7.4068C16.976 7.07445 17.1806 6.65376 17.3643 6.33103C17.3711 6.31926 17.3815 6.30991 17.3938 6.30427C17.4062 6.29863 17.42 6.29698 17.4334 6.29954ZM9.06427 14.9547C9.06427 16.1013 9.91702 17.0362 10.9508 17.0362C12.0012 17.0362 12.8373 16.1022 12.8373 14.9547C12.854 13.8151 12.0091 12.8731 10.9508 12.8731C9.9004 12.8731 9.06427 13.8072 9.06427 14.9547ZM16.0393 14.9547C16.0393 16.1013 16.8911 17.0362 17.9258 17.0362C18.985 17.0362 19.8123 16.1022 19.8123 14.9547C19.829 13.8151 18.9841 12.8731 17.9258 12.8731C16.8745 12.8731 16.0393 13.8072 16.0393 14.9547Z" fill="white"/>
</svg>
