<svg width="691" height="226" viewBox="0 0 691 226" fill="none" xmlns="http://www.w3.org/2000/svg">
<g filter="url(#filter0_d_1_636)">
<path d="M43.88 98C42.14 98 40.52 97.64 39.02 96.92C37.58 96.2 36.86 95.12 36.86 93.68V36.44C36.86 35.3 37.34 34.31 38.3 33.47C39.26 32.63 40.52 32.21 42.08 32.21H60.71C64.67 32.21 68.24 32.9 71.42 34.28C74.66 35.6 77.21 37.79 79.07 40.85C80.99 43.85 81.95 47.87 81.95 52.91V53.36C81.95 58.4 80.96 62.45 78.98 65.51C77.06 68.57 74.42 70.79 71.06 72.17C67.7 73.55 63.95 74.24 59.81 74.24H50.9V93.68C50.9 95.12 50.15 96.2 48.65 96.92C47.21 97.64 45.62 98 43.88 98ZM50.9 63.44H59.81C62.33 63.44 64.31 62.72 65.75 61.28C67.19 59.78 67.91 57.5 67.91 54.44V53.45C67.91 50.39 67.19 48.14 65.75 46.7C64.31 45.2 62.33 44.45 59.81 44.45H50.9V63.44ZM124.91 98.54C124.01 98.54 123.14 98.36 122.3 98C121.52 97.58 120.89 96.89 120.41 95.93L108.08 71.99H102.14V93.68C102.14 95.12 101.39 96.2 99.8902 96.92C98.4502 97.64 96.8602 98 95.1202 98C93.3802 98 91.7602 97.64 90.2602 96.92C88.8202 96.2 88.1002 95.12 88.1002 93.68V36.44C88.1002 35.3 88.4902 34.31 89.2702 33.47C90.0502 32.63 91.1002 32.21 92.4202 32.21H111.05C115.19 32.21 118.91 32.81 122.21 34.01C125.57 35.15 128.24 37.13 130.22 39.95C132.2 42.71 133.19 46.55 133.19 51.47C133.19 54.83 132.71 57.74 131.75 60.2C130.85 62.6 129.56 64.58 127.88 66.14C126.26 67.7 124.4 68.9 122.3 69.74L133.28 89.63C133.46 89.87 133.58 90.14 133.64 90.44C133.7 90.74 133.73 91.01 133.73 91.25C133.73 92.39 133.28 93.53 132.38 94.67C131.48 95.81 130.34 96.74 128.96 97.46C127.64 98.18 126.29 98.54 124.91 98.54ZM102.14 61.19H111.05C113.57 61.19 115.55 60.59 116.99 59.39C118.43 58.13 119.15 55.94 119.15 52.82C119.15 49.64 118.43 47.45 116.99 46.25C115.55 45.05 113.57 44.45 111.05 44.45H102.14V61.19ZM161.989 98.54C157.849 98.54 154.099 97.85 150.739 96.47C147.439 95.09 144.799 92.84 142.819 89.72C140.899 86.6 139.939 82.46 139.939 77.3V53.45C139.939 48.29 140.899 44.15 142.819 41.03C144.799 37.91 147.439 35.66 150.739 34.28C154.099 32.9 157.849 32.21 161.989 32.21C166.129 32.21 169.879 32.9 173.239 34.28C176.599 35.66 179.239 37.91 181.159 41.03C183.139 44.15 184.129 48.29 184.129 53.45V77.3C184.129 82.46 183.139 86.6 181.159 89.72C179.239 92.84 176.599 95.09 173.239 96.47C169.879 97.85 166.129 98.54 161.989 98.54ZM161.989 86.3C164.509 86.3 166.489 85.58 167.929 84.14C169.369 82.7 170.089 80.42 170.089 77.3V53.45C170.089 50.33 169.369 48.05 167.929 46.61C166.489 45.17 164.509 44.45 161.989 44.45C159.469 44.45 157.489 45.17 156.049 46.61C154.669 48.05 153.979 50.33 153.979 53.45V77.3C153.979 80.42 154.669 82.7 156.049 84.14C157.489 85.58 159.469 86.3 161.989 86.3ZM215.54 98.54C211.28 98.54 207.44 97.85 204.02 96.47C200.6 95.09 197.87 92.84 195.83 89.72C193.85 86.6 192.86 82.46 192.86 77.3V36.44C192.86 34.94 193.58 33.86 195.02 33.2C196.46 32.54 198.08 32.21 199.88 32.21C201.62 32.21 203.21 32.54 204.65 33.2C206.15 33.86 206.9 34.94 206.9 36.44V77.3C206.9 80.36 207.65 82.64 209.15 84.14C210.71 85.58 212.84 86.3 215.54 86.3C218.24 86.3 220.34 85.58 221.84 84.14C223.4 82.64 224.18 80.36 224.18 77.3V36.44C224.18 34.94 224.9 33.86 226.34 33.2C227.78 32.54 229.4 32.21 231.2 32.21C232.94 32.21 234.53 32.54 235.97 33.2C237.47 33.86 238.22 34.94 238.22 36.44V77.3C238.22 82.46 237.2 86.6 235.16 89.72C233.18 92.84 230.48 95.09 227.06 96.47C223.64 97.85 219.8 98.54 215.54 98.54ZM253.83 98C251.97 98 250.47 97.58 249.33 96.74C248.25 95.9 247.71 94.91 247.71 93.77V36.44C247.71 35.3 248.25 34.31 249.33 33.47C250.47 32.63 251.97 32.21 253.83 32.21H269.76C273.9 32.21 277.65 32.9 281.01 34.28C284.37 35.66 287.01 37.91 288.93 41.03C290.91 44.15 291.9 48.29 291.9 53.45V76.76C291.9 81.92 290.91 86.06 288.93 89.18C287.01 92.3 284.37 94.55 281.01 95.93C277.65 97.31 273.9 98 269.76 98H253.83ZM261.75 85.76H269.76C272.28 85.76 274.26 85.04 275.7 83.6C277.14 82.1 277.86 79.82 277.86 76.76V53.45C277.86 50.39 277.14 48.14 275.7 46.7C274.26 45.2 272.28 44.45 269.76 44.45H261.75V85.76ZM280.966 193C279.013 193 277.195 192.596 275.512 191.788C273.896 190.98 273.088 189.768 273.088 188.152V123.916C273.088 122.233 273.896 121.021 275.512 120.28C277.195 119.539 279.013 119.169 280.966 119.169C282.918 119.169 284.703 119.539 286.319 120.28C288.002 121.021 288.844 122.233 288.844 123.916V148.661H308.943V123.916C308.943 122.233 309.751 121.021 311.367 120.28C313.05 119.539 314.868 119.169 316.821 119.169C318.773 119.169 320.558 119.539 322.174 120.28C323.857 121.021 324.699 122.233 324.699 123.916V188.152C324.699 189.768 323.857 190.98 322.174 191.788C320.558 192.596 318.773 193 316.821 193C314.868 193 313.05 192.596 311.367 191.788C309.751 190.98 308.943 189.768 308.943 188.152V160.781H288.844V188.152C288.844 189.768 288.002 190.98 286.319 191.788C284.703 192.596 282.918 193 280.966 193ZM597.553 193C595.87 193 594.288 192.596 592.806 191.788C591.392 190.98 590.685 189.768 590.685 188.152V124.017C590.685 122.401 591.392 121.189 592.806 120.381C594.288 119.573 595.87 119.169 597.553 119.169H633.509C635.193 119.169 636.405 119.91 637.145 121.391C637.886 122.805 638.256 124.32 638.256 125.936C638.256 127.821 637.852 129.471 637.044 130.885C636.236 132.232 635.058 132.905 633.509 132.905H606.441V149.974H621.591C623.14 149.974 624.318 150.614 625.126 151.893C625.934 153.105 626.338 154.519 626.338 156.135C626.338 157.482 625.968 158.828 625.227 160.175C624.487 161.454 623.275 162.094 621.591 162.094H606.441V179.264H633.509C635.058 179.264 636.236 179.971 637.044 181.385C637.852 182.732 638.256 184.348 638.256 186.233C638.256 187.849 637.886 189.398 637.145 190.879C636.405 192.293 635.193 193 633.509 193H597.553ZM649.777 193.606C647.555 193.606 645.703 192.832 644.222 191.283C642.74 189.734 642 187.916 642 185.829C642 183.674 642.74 181.856 644.222 180.375C645.703 178.826 647.555 178.052 649.777 178.052C651.864 178.052 653.648 178.826 655.13 180.375C656.678 181.856 657.453 183.674 657.453 185.829C657.453 187.916 656.678 189.734 655.13 191.283C653.648 192.832 651.864 193.606 649.777 193.606Z" fill="#FFFA00"/>
<path d="M340.143 98.54C336.003 98.54 332.253 97.85 328.893 96.47C325.593 95.09 322.953 92.84 320.973 89.72C319.053 86.6 318.093 82.46 318.093 77.3V53.45C318.093 48.29 319.053 44.15 320.973 41.03C322.953 37.91 325.593 35.66 328.893 34.28C332.253 32.9 336.003 32.21 340.143 32.21C344.283 32.21 348.033 32.9 351.393 34.28C354.753 35.66 357.393 37.91 359.313 41.03C361.293 44.15 362.283 48.29 362.283 53.45V77.3C362.283 82.46 361.293 86.6 359.313 89.72C357.393 92.84 354.753 95.09 351.393 96.47C348.033 97.85 344.283 98.54 340.143 98.54ZM340.143 86.3C342.663 86.3 344.643 85.58 346.083 84.14C347.523 82.7 348.243 80.42 348.243 77.3V53.45C348.243 50.33 347.523 48.05 346.083 46.61C344.643 45.17 342.663 44.45 340.143 44.45C337.623 44.45 335.643 45.17 334.203 46.61C332.823 48.05 332.133 50.33 332.133 53.45V77.3C332.133 80.42 332.823 82.7 334.203 84.14C335.643 85.58 337.623 86.3 340.143 86.3ZM378.304 98C376.564 98 374.944 97.64 373.444 96.92C372.004 96.2 371.284 95.12 371.284 93.68V36.53C371.284 35.09 371.914 34.01 373.174 33.29C374.494 32.57 375.904 32.21 377.404 32.21H408.634C410.134 32.21 411.214 32.87 411.874 34.19C412.534 35.45 412.864 36.8 412.864 38.24C412.864 39.92 412.504 41.39 411.784 42.65C411.064 43.85 410.014 44.45 408.634 44.45H385.324V59.66H398.914C400.294 59.66 401.344 60.23 402.064 61.37C402.784 62.45 403.144 63.71 403.144 65.15C403.144 66.35 402.814 67.55 402.154 68.75C401.494 69.89 400.414 70.46 398.914 70.46H385.324V93.68C385.324 95.12 384.574 96.2 383.074 96.92C381.634 97.64 380.044 98 378.304 98ZM42.504 193C41.09 193 39.575 192.731 37.959 192.192C36.4103 191.586 35.0973 190.812 34.02 189.869C32.9427 188.859 32.404 187.748 32.404 186.536C32.404 186.334 32.4713 185.964 32.606 185.425L51.392 123.815C51.9307 122.064 53.21 120.751 55.23 119.876C57.25 119.001 59.4047 118.563 61.694 118.563C64.0507 118.563 66.2053 119.001 68.158 119.876C70.178 120.751 71.4573 122.064 71.996 123.815L90.883 185.425C91.0177 185.964 91.085 186.334 91.085 186.536C91.085 187.748 90.5463 188.859 89.469 189.869C88.3917 190.812 87.0787 191.586 85.53 192.192C83.9813 192.731 82.4663 193 80.985 193C79.7057 193 78.5947 192.798 77.652 192.394C76.7767 191.923 76.1707 191.148 75.834 190.071L72.4 177.446H51.089L47.655 190.071C47.3857 191.148 46.7797 191.923 45.837 192.394C44.8943 192.798 43.7833 193 42.504 193ZM54.321 165.326H69.067L61.694 138.258L54.321 165.326Z" fill="#FD2500"/>
<path d="M441.74 98C439.88 98 438.38 97.58 437.24 96.74C436.16 95.9 435.62 94.91 435.62 93.77V36.53C435.62 35.09 436.25 34.01 437.51 33.29C438.83 32.57 440.24 32.21 441.74 32.21H460.19C463.19 32.21 466.07 32.66 468.83 33.56C471.59 34.46 473.84 36.08 475.58 38.42C477.32 40.7 478.19 43.97 478.19 48.23C478.19 51.89 477.5 54.92 476.12 57.32C474.8 59.66 472.94 61.34 470.54 62.36C472.4 63.02 474.02 63.92 475.4 65.06C476.78 66.14 477.86 67.61 478.64 69.47C479.42 71.33 479.81 73.76 479.81 76.76V78.65C479.81 83.39 479 87.17 477.38 89.99C475.82 92.81 473.66 94.85 470.9 96.11C468.2 97.37 465.14 98 461.72 98H441.74ZM449.57 85.76H458.57C460.85 85.76 462.62 85.1 463.88 83.78C465.14 82.46 465.77 80.36 465.77 77.48V76.04C465.77 72.98 465.14 70.85 463.88 69.65C462.62 68.39 460.85 67.76 458.57 67.76H449.57V85.76ZM449.57 56.96H459.02C460.76 56.96 462.05 56.3 462.89 54.98C463.73 53.66 464.15 52.25 464.15 50.75C464.15 49.67 463.94 48.65 463.52 47.69C463.16 46.73 462.59 45.95 461.81 45.35C461.09 44.75 460.16 44.45 459.02 44.45H449.57V56.96ZM493.244 98C491.744 98 490.334 97.64 489.014 96.92C487.754 96.2 487.124 95.12 487.124 93.68V36.53C487.124 35.09 487.754 34.01 489.014 33.29C490.334 32.57 491.744 32.21 493.244 32.21H525.284C526.784 32.21 527.864 32.87 528.524 34.19C529.184 35.45 529.514 36.8 529.514 38.24C529.514 39.92 529.154 41.39 528.434 42.65C527.714 43.85 526.664 44.45 525.284 44.45H501.164V59.66H514.664C516.044 59.66 517.094 60.23 517.814 61.37C518.534 62.45 518.894 63.71 518.894 65.15C518.894 66.35 518.564 67.55 517.904 68.75C517.244 69.89 516.164 70.46 514.664 70.46H501.164V85.76H525.284C526.664 85.76 527.714 86.39 528.434 87.65C529.154 88.85 529.514 90.29 529.514 91.97C529.514 93.41 529.184 94.79 528.524 96.11C527.864 97.37 526.784 98 525.284 98H493.244ZM542.659 98C540.919 98 539.299 97.64 537.799 96.92C536.359 96.2 535.639 95.12 535.639 93.68V36.44C535.639 34.94 536.359 33.86 537.799 33.2C539.299 32.54 540.919 32.21 542.659 32.21C544.399 32.21 545.989 32.54 547.429 33.2C548.929 33.86 549.679 34.94 549.679 36.44V93.68C549.679 95.12 548.929 96.2 547.429 96.92C545.989 97.64 544.399 98 542.659 98ZM566.39 98C564.65 98 563.03 97.64 561.53 96.92C560.09 96.2 559.37 95.12 559.37 93.68V36.53C559.37 35.03 560.09 33.95 561.53 33.29C563.03 32.57 564.65 32.21 566.39 32.21C568.07 32.21 569.45 32.36 570.53 32.66C571.67 32.9 572.69 33.5 573.59 34.46C574.55 35.42 575.6 37.01 576.74 39.23L591.32 67.04V36.44C591.32 34.94 592.04 33.86 593.48 33.2C594.98 32.54 596.6 32.21 598.34 32.21C600.08 32.21 601.67 32.54 603.11 33.2C604.61 33.86 605.36 34.94 605.36 36.44V93.68C605.36 95.12 604.61 96.2 603.11 96.92C601.67 97.64 600.08 98 598.34 98C596.72 98 595.22 97.76 593.84 97.28C592.46 96.8 591.35 95.78 590.51 94.22L573.41 63.08V93.68C573.41 95.12 572.66 96.2 571.16 96.92C569.72 97.64 568.13 98 566.39 98ZM636.422 98.54C632.282 98.54 628.532 97.85 625.172 96.47C621.872 95.09 619.232 92.84 617.252 89.72C615.332 86.6 614.372 82.46 614.372 77.3V53.45C614.372 48.29 615.332 44.15 617.252 41.03C619.232 37.91 621.872 35.66 625.172 34.28C628.472 32.9 632.072 32.21 635.972 32.21C640.292 32.21 644.132 32.93 647.492 34.37C650.912 35.75 653.612 37.76 655.592 40.4C657.572 43.04 658.562 46.28 658.562 50.12C658.562 52.82 657.992 54.62 656.852 55.52C655.712 56.36 653.942 56.78 651.542 56.78C649.682 56.78 648.062 56.48 646.682 55.88C645.302 55.28 644.582 54.17 644.522 52.55C644.522 51.47 644.372 50.3 644.072 49.04C643.832 47.78 643.142 46.7 642.002 45.8C640.922 44.9 639.092 44.45 636.512 44.45C633.932 44.45 631.922 45.2 630.482 46.7C629.102 48.14 628.412 50.39 628.412 53.45V77.3C628.412 80.36 629.102 82.64 630.482 84.14C631.922 85.58 633.902 86.3 636.422 86.3C638.942 86.3 640.922 85.58 642.362 84.14C643.802 82.64 644.522 80.36 644.522 77.3V74.24H639.212C637.892 74.24 636.842 73.7 636.062 72.62C635.342 71.48 634.982 70.22 634.982 68.84C634.982 67.52 635.342 66.29 636.062 65.15C636.842 64.01 637.892 63.44 639.212 63.44H654.332C655.712 63.44 656.762 63.89 657.482 64.79C658.202 65.63 658.562 66.65 658.562 67.85V77.3C658.562 82.46 657.572 86.6 655.592 89.72C653.672 92.84 651.032 95.09 647.672 96.47C644.312 97.85 640.562 98.54 636.422 98.54ZM342.489 193C340.806 193 339.223 192.596 337.742 191.788C336.328 190.98 335.621 189.768 335.621 188.152V124.017C335.621 122.401 336.328 121.189 337.742 120.381C339.223 119.573 340.806 119.169 342.489 119.169H378.445C380.128 119.169 381.34 119.91 382.081 121.391C382.822 122.805 383.192 124.32 383.192 125.936C383.192 127.821 382.788 129.471 381.98 130.885C381.172 132.232 379.994 132.905 378.445 132.905H351.377V149.974H366.527C368.076 149.974 369.254 150.614 370.062 151.893C370.87 153.105 371.274 154.519 371.274 156.135C371.274 157.482 370.904 158.828 370.163 160.175C369.422 161.454 368.21 162.094 366.527 162.094H351.377V179.264H378.445C379.994 179.264 381.172 179.971 381.98 181.385C382.788 182.732 383.192 184.348 383.192 186.233C383.192 187.849 382.822 189.398 382.081 190.879C381.34 192.293 380.128 193 378.445 193H342.489Z" fill="#AA29AD"/>
<path d="M104.808 193C102.855 193 101.037 192.596 99.3536 191.788C97.7376 190.98 96.9296 189.768 96.9296 188.152V124.017C96.9296 122.334 97.7376 121.122 99.3536 120.381C101.037 119.573 102.855 119.169 104.808 119.169C106.693 119.169 108.242 119.337 109.454 119.674C110.733 119.943 111.878 120.617 112.888 121.694C113.965 122.771 115.143 124.556 116.423 127.047L132.785 158.256V123.916C132.785 122.233 133.593 121.021 135.209 120.28C136.892 119.539 138.71 119.169 140.663 119.169C142.615 119.169 144.4 119.539 146.016 120.28C147.699 121.021 148.541 122.233 148.541 123.916V188.152C148.541 189.768 147.699 190.98 146.016 191.788C144.4 192.596 142.615 193 140.663 193C138.845 193 137.161 192.731 135.613 192.192C134.064 191.653 132.818 190.509 131.876 188.758L112.686 153.812V188.152C112.686 189.768 111.844 190.98 110.161 191.788C108.545 192.596 106.76 193 104.808 193ZM431.375 193.606C430.365 193.606 429.389 193.404 428.446 193C427.571 192.529 426.864 191.754 426.325 190.677L412.488 163.811H405.822V188.152C405.822 189.768 404.981 190.98 403.297 191.788C401.681 192.596 399.897 193 397.944 193C395.992 193 394.174 192.596 392.49 191.788C390.874 190.98 390.066 189.768 390.066 188.152V123.916C390.066 122.637 390.504 121.526 391.379 120.583C392.255 119.64 393.433 119.169 394.914 119.169H415.821C420.467 119.169 424.642 119.842 428.345 121.189C432.116 122.468 435.112 124.69 437.334 127.855C439.556 130.952 440.667 135.262 440.667 140.783C440.667 144.554 440.129 147.819 439.051 150.58C438.041 153.273 436.594 155.495 434.708 157.246C432.89 158.997 430.803 160.343 428.446 161.286L440.768 183.607C440.97 183.876 441.105 184.179 441.172 184.516C441.24 184.853 441.273 185.156 441.273 185.425C441.273 186.704 440.768 187.984 439.758 189.263C438.748 190.542 437.469 191.586 435.92 192.394C434.439 193.202 432.924 193.606 431.375 193.606ZM405.822 151.691H415.821C418.649 151.691 420.871 151.018 422.487 149.671C424.103 148.257 424.911 145.799 424.911 142.298C424.911 138.729 424.103 136.272 422.487 134.925C420.871 133.578 418.649 132.905 415.821 132.905H405.822V151.691Z" fill="#40B8FF"/>
<path d="M183.4 193.606C178.754 193.606 174.545 192.832 170.775 191.283C167.071 189.734 164.109 187.209 161.887 183.708C159.732 180.207 158.655 175.561 158.655 169.77V143.005C158.655 137.214 159.732 132.568 161.887 129.067C164.109 125.566 167.071 123.041 170.775 121.492C174.545 119.943 178.754 119.169 183.4 119.169C188.046 119.169 192.254 119.943 196.025 121.492C199.795 123.041 202.758 125.566 204.913 129.067C207.135 132.568 208.246 137.214 208.246 143.005V169.77C208.246 175.561 207.135 180.207 204.913 183.708C202.758 187.209 199.795 189.734 196.025 191.283C192.254 192.832 188.046 193.606 183.4 193.606ZM183.4 179.87C186.228 179.87 188.45 179.062 190.066 177.446C191.682 175.83 192.49 173.271 192.49 169.77V143.005C192.49 139.504 191.682 136.945 190.066 135.329C188.45 133.713 186.228 132.905 183.4 132.905C180.572 132.905 178.35 133.713 176.734 135.329C175.185 136.945 174.411 139.504 174.411 143.005V169.77C174.411 173.271 175.185 175.83 176.734 177.446C178.35 179.062 180.572 179.87 183.4 179.87ZM493.205 193.606C488.559 193.606 484.351 192.832 480.58 191.283C476.877 189.734 473.914 187.209 471.692 183.708C469.538 180.207 468.46 175.561 468.46 169.77V143.005C468.46 137.214 469.538 132.568 471.692 129.067C473.914 125.566 476.877 123.041 480.58 121.492C484.351 119.943 488.559 119.169 493.205 119.169C497.851 119.169 502.06 119.943 505.83 121.492C509.601 123.041 512.564 125.566 514.718 129.067C516.94 132.568 518.051 137.214 518.051 143.005V169.77C518.051 175.561 516.94 180.207 514.718 183.708C512.564 187.209 509.601 189.734 505.83 191.283C502.06 192.832 497.851 193.606 493.205 193.606ZM493.205 179.87C496.033 179.87 498.255 179.062 499.871 177.446C501.487 175.83 502.295 173.271 502.295 169.77V143.005C502.295 139.504 501.487 136.945 499.871 135.329C498.255 133.713 496.033 132.905 493.205 132.905C490.377 132.905 488.155 133.713 486.539 135.329C484.991 136.945 484.216 139.504 484.216 143.005V169.77C484.216 173.271 484.991 175.83 486.539 177.446C488.155 179.062 490.377 179.87 493.205 179.87Z" fill="#8CD4FF"/>
<path d="M240.264 193C238.311 193 236.493 192.596 234.81 191.788C233.194 190.98 232.386 189.768 232.386 188.152V133.309H218.448C216.966 133.309 215.788 132.602 214.913 131.188C214.105 129.707 213.701 128.023 213.701 126.138C213.701 124.455 214.071 122.872 214.812 121.391C215.552 119.91 216.764 119.169 218.448 119.169H262.08C263.763 119.169 264.975 119.91 265.716 121.391C266.456 122.872 266.827 124.455 266.827 126.138C266.827 128.023 266.423 129.707 265.615 131.188C264.807 132.602 263.628 133.309 262.08 133.309H248.142V188.152C248.142 189.768 247.3 190.98 245.617 191.788C244.001 192.596 242.216 193 240.264 193ZM536.03 193C534.078 193 532.26 192.596 530.576 191.788C528.96 190.98 528.152 189.768 528.152 188.152V124.017C528.152 122.334 528.96 121.122 530.576 120.381C532.26 119.573 534.078 119.169 536.03 119.169C537.916 119.169 539.464 119.337 540.676 119.674C541.956 119.943 543.1 120.617 544.11 121.694C545.188 122.771 546.366 124.556 547.645 127.047L564.007 158.256V123.916C564.007 122.233 564.815 121.021 566.431 120.28C568.115 119.539 569.933 119.169 571.885 119.169C573.838 119.169 575.622 119.539 577.238 120.28C578.922 121.021 579.763 122.233 579.763 123.916V188.152C579.763 189.768 578.922 190.98 577.238 191.788C575.622 192.596 573.838 193 571.885 193C570.067 193 568.384 192.731 566.835 192.192C565.287 191.653 564.041 190.509 563.098 188.758L543.908 153.812V188.152C543.908 189.768 543.067 190.98 541.383 191.788C539.767 192.596 537.983 193 536.03 193Z" fill="#42E416"/>
</g>
<defs>
<filter id="filter0_d_1_636" x="0.404053" y="0.209961" width="690.158" height="225.396" filterUnits="userSpaceOnUse" color-interpolation-filters="sRGB">
<feFlood flood-opacity="0" result="BackgroundImageFix"/>
<feColorMatrix in="SourceAlpha" type="matrix" values="0 0 0 0 0 0 0 0 0 0 0 0 0 0 0 0 0 0 127 0" result="hardAlpha"/>
<feOffset/>
<feGaussianBlur stdDeviation="16"/>
<feComposite in2="hardAlpha" operator="out"/>
<feColorMatrix type="matrix" values="0 0 0 0 0 0 0 0 0 0 0 0 0 0 0 0 0 0 0.05 0"/>
<feBlend mode="normal" in2="BackgroundImageFix" result="effect1_dropShadow_1_636"/>
<feBlend mode="normal" in="SourceGraphic" in2="effect1_dropShadow_1_636" result="shape"/>
</filter>
</defs>
</svg>
