<svg width="875" height="695" viewBox="0 0 875 695" fill="none" xmlns="http://www.w3.org/2000/svg">
<path d="M0 68.6V93C0 130.9 30.7 161.6 68.6 161.6H806.3C844.2 161.6 874.9 130.9 874.9 93V68.6C874.9 30.7 844.2 0 806.3 0H68.6C30.7 0 0 30.7 0 68.6ZM68.6 428H806.3C844.2 428 874.9 397.3 874.9 359.4V334.9C874.9 297 844.2 266.3 806.3 266.3H68.6C30.7 266.3 0 297 0 334.9V359.3C0 397.3 30.7 428 68.6 428ZM68.6 694.3H806.3C844.2 694.3 874.9 663.6 874.9 625.7V601.3C874.9 563.4 844.2 532.7 806.3 532.7H68.6C30.7 532.7 0 563.4 0 601.3V625.7C0 663.6 30.7 694.3 68.6 694.3Z" fill="white"/>
</svg>
