<svg width="39" height="39" viewBox="0 0 39 39" fill="none" xmlns="http://www.w3.org/2000/svg">
<path d="M19.5 39C30.2696 39 39 30.2696 39 19.5C39 8.73045 30.2696 0 19.5 0C8.73045 0 0 8.73045 0 19.5C0 30.2696 8.73045 39 19.5 39Z" fill="#2081E2"/>
<path d="M9.62053 20.1552L9.70477 20.023L14.7771 12.0873C14.794 12.061 14.8176 12.0397 14.8456 12.0258C14.8735 12.0118 14.9047 12.0056 14.9358 12.0079C14.967 12.0102 14.9969 12.0208 15.0225 12.0387C15.0481 12.0566 15.0684 12.081 15.0813 12.1095C15.9288 14.0088 16.66 16.3706 16.3176 17.8413C16.1714 18.4462 15.7708 19.2656 15.32 20.023C15.2615 20.1334 15.1975 20.2414 15.1297 20.3455C15.1138 20.3691 15.0923 20.3884 15.0671 20.4017C15.0419 20.415 15.0138 20.4218 14.9854 20.4216H9.76873C9.62833 20.4216 9.54643 20.2695 9.62053 20.1552Z" fill="white"/>
<path d="M32.2312 21.6298V22.8856C32.2312 22.9582 32.1871 23.0221 32.1231 23.0502C31.7304 23.2187 30.3861 23.8357 29.8272 24.6129C28.4006 26.598 27.3109 29.4373 24.8746 29.4373H14.7112C11.1092 29.4373 8.19 26.5083 8.19 22.8938V22.778C8.19 22.6817 8.268 22.6037 8.36433 22.6037H14.0303C14.1422 22.6037 14.2245 22.7078 14.2143 22.8182C14.1744 23.1927 14.2448 23.5708 14.4167 23.9059C14.5815 24.2391 14.8361 24.5196 15.1519 24.7158C15.4677 24.9119 15.832 25.0158 16.2037 25.0158H19.0086V22.826H16.2357C16.2032 22.8256 16.1715 22.8163 16.1439 22.7992C16.1163 22.7822 16.0939 22.7579 16.079 22.729C16.0642 22.7001 16.0575 22.6678 16.0597 22.6354C16.0619 22.603 16.0728 22.5718 16.0914 22.5452C16.1218 22.4991 16.1558 22.4516 16.1916 22.397C16.5534 21.8762 16.8905 21.3387 17.2017 20.7863C17.456 20.3417 17.7025 19.8666 17.9006 19.3901C17.9408 19.3039 17.9728 19.2157 18.0047 19.1295C18.059 18.9774 18.1151 18.8351 18.1553 18.6927C18.1951 18.5726 18.2274 18.4463 18.2594 18.3281C18.3534 17.9233 18.3936 17.4947 18.3936 17.0501C18.3936 16.8757 18.3858 16.6932 18.3694 16.5189C18.3616 16.3286 18.3374 16.1382 18.3132 15.9479C18.2946 15.7772 18.2686 15.6074 18.2352 15.439C18.1935 15.1829 18.1401 14.9289 18.0753 14.6777L18.0531 14.5818C18.0047 14.4074 17.965 14.2413 17.9088 14.067C17.7538 13.5333 17.5759 13.0066 17.3757 12.4882C17.3055 12.2897 17.2255 12.0994 17.1456 11.9091C17.0274 11.6224 16.9069 11.3623 16.7969 11.1158C16.7408 11.0035 16.6928 10.9013 16.6448 10.7972C16.5913 10.68 16.5358 10.5638 16.4783 10.4485C16.4381 10.3627 16.3921 10.2824 16.3601 10.2021L16.0173 9.56909C16.0066 9.54993 16.0017 9.52804 16.0034 9.50614C16.005 9.48424 16.0131 9.46332 16.0266 9.446C16.0401 9.42867 16.0584 9.41571 16.0792 9.40875C16.1 9.40179 16.1225 9.40113 16.1437 9.40685L18.2875 9.98795H18.2933C18.2972 9.98795 18.2996 9.9899 18.3011 9.9899L18.5839 10.0679L18.8943 10.156L19.0086 10.188V8.91389C19.0086 8.29886 19.5016 7.80005 20.1104 7.80005C20.4149 7.80005 20.6915 7.92407 20.89 8.12648C21.0881 8.32928 21.2125 8.6054 21.2125 8.91428V10.8054L21.4406 10.8693C21.4594 10.8752 21.477 10.884 21.4929 10.8955C21.5491 10.9376 21.6294 10.9996 21.7312 11.0757C21.8115 11.1396 21.8977 11.218 22.0019 11.298C22.2082 11.4645 22.4543 11.6786 22.7249 11.9251C22.7971 11.9875 22.8673 12.0514 22.9316 12.1154C23.3199 12.4727 23.6908 12.8485 24.0431 13.2413C24.1476 13.3595 24.2498 13.4796 24.3539 13.606C24.4581 13.7343 24.5684 13.8603 24.6644 13.9866C24.7907 14.1551 24.9269 14.3294 25.045 14.5116C25.1012 14.5977 25.1651 14.6859 25.2194 14.7721C25.3715 15.0022 25.5056 15.2409 25.6339 15.4791C25.6881 15.5895 25.7443 15.7096 25.7923 15.8278C25.9346 16.1464 26.0465 16.4713 26.1187 16.7954C26.1409 16.8656 26.1569 16.9416 26.1647 17.0099V17.0259C26.1889 17.1222 26.1971 17.2244 26.2049 17.3285C26.2381 17.6626 26.2192 17.9998 26.1487 18.3281C26.1177 18.4699 26.0783 18.6098 26.0306 18.747C25.9826 18.8835 25.9346 19.0254 25.8722 19.1596C25.7515 19.4435 25.6075 19.7169 25.4417 19.977C25.3874 20.073 25.3235 20.1751 25.2591 20.2715C25.1889 20.3736 25.1172 20.47 25.0528 20.564C24.9647 20.6841 24.8707 20.8104 24.7744 20.9228C24.6886 21.0409 24.6 21.1591 24.5041 21.2632C24.3754 21.4171 24.2431 21.5679 24.1075 21.7156C24.0271 21.81 23.9409 21.9063 23.8528 21.9925C23.767 22.0885 23.6785 22.1747 23.5985 22.255C23.4644 22.3892 23.352 22.4933 23.258 22.5795L23.0377 22.7819C23.0049 22.8104 22.9629 22.826 22.9195 22.826H21.2121V25.0158H23.3598C23.8389 25.0156 24.3021 24.8442 24.6659 24.5326C24.7923 24.4226 25.343 23.9457 25.9943 23.2265C26.0161 23.2022 26.0446 23.1848 26.0762 23.1766L32.0085 21.4614C32.0345 21.4541 32.0618 21.4529 32.0884 21.458C32.1149 21.463 32.1399 21.4741 32.1614 21.4904C32.183 21.5067 32.2004 21.5278 32.2125 21.552C32.2245 21.5762 32.2307 21.6028 32.2308 21.6298H32.2312Z" fill="white"/>
</svg>
