<svg width="29" height="29" viewBox="0 0 29 29" fill="none" xmlns="http://www.w3.org/2000/svg">
<path fill-rule="evenodd" clip-rule="evenodd" d="M29 14.5C29 22.5077 22.5077 29 14.5 29C6.49232 29 0 22.5077 0 14.5C0 6.49232 6.49232 0 14.5 0C22.5094 0 29 6.49232 29 14.5ZM7.15369 14.9872L7.21624 14.8889L10.9883 8.98803C11.0434 8.90164 11.173 8.91057 11.2147 9.00441C11.8449 10.4167 12.3886 12.1731 12.1339 13.2666C12.0251 13.7165 11.7272 14.3258 11.392 14.8889C11.3488 14.9708 11.3011 15.0513 11.2505 15.1287C11.2266 15.1645 11.1864 15.1854 11.1432 15.1854H7.26392C7.15964 15.1854 7.09856 15.0721 7.15369 14.9872ZM23.9669 17.0177V16.0837C23.9669 15.9973 23.8835 15.9347 23.8015 15.9586L19.3904 17.2338C19.3666 17.2397 19.3457 17.2531 19.3293 17.271C18.8569 17.7929 18.4553 18.1431 18.349 18.2359L18.3416 18.2423C18.0675 18.4747 17.7278 18.6014 17.3703 18.6014H15.7733V16.9731H17.0426C17.0753 16.9731 17.1066 16.9611 17.1305 16.9403L17.2943 16.7898C17.3644 16.7257 17.4478 16.6483 17.5476 16.5485C17.5561 16.54 17.5647 16.5314 17.5734 16.5227C17.6258 16.4705 17.6819 16.4146 17.7368 16.3533C17.8023 16.2893 17.8664 16.2178 17.926 16.1478C18.0258 16.0405 18.1211 15.9287 18.221 15.8111C18.2925 15.7336 18.358 15.6457 18.4221 15.5578C18.4936 15.4744 18.5636 15.3805 18.6291 15.2911C18.6535 15.2553 18.6795 15.2191 18.706 15.182C18.7313 15.1467 18.7571 15.1107 18.7826 15.0736C18.8303 15.0021 18.8779 14.9262 18.9181 14.8546C19.0433 14.661 19.1491 14.4539 19.2385 14.2468C19.2795 14.1581 19.3123 14.0648 19.3442 13.974C19.3482 13.9626 19.3521 13.9512 19.3561 13.94C19.3919 13.8342 19.4217 13.7344 19.444 13.6286C19.4977 13.3798 19.5096 13.1325 19.4857 12.8852C19.4798 12.8077 19.4738 12.7318 19.456 12.6603V12.6483C19.45 12.5977 19.4381 12.5411 19.4217 12.4889C19.3681 12.2476 19.2846 12.0063 19.1789 11.7694C19.1431 11.6815 19.1014 11.5921 19.0612 11.5102C18.9658 11.3329 18.866 11.1556 18.7528 10.9843C18.7301 10.9481 18.705 10.9115 18.6799 10.8749C18.6606 10.8467 18.6413 10.8185 18.6232 10.7906C18.5515 10.68 18.4709 10.5734 18.3926 10.47C18.375 10.4466 18.3574 10.4234 18.3401 10.4003C18.2939 10.3397 18.2434 10.2791 18.1925 10.218C18.1646 10.1846 18.1366 10.151 18.1092 10.1173C18.0318 10.0234 17.9558 9.93404 17.8783 9.84614C17.6012 9.53329 17.3107 9.25025 17.0515 9.00891C17.0038 8.96123 16.9517 8.91356 16.8981 8.86739C16.697 8.68414 16.5137 8.52472 16.3603 8.4011C16.3142 8.36563 16.2728 8.33068 16.2343 8.29816C16.2081 8.27603 16.1833 8.25503 16.1591 8.23574C16.1126 8.20106 16.0723 8.17031 16.0384 8.14449C16.0169 8.12814 15.998 8.11377 15.9819 8.10164C15.97 8.09271 15.9566 8.08677 15.9432 8.08227L15.7733 8.03462V6.6283C15.7733 6.39888 15.6809 6.1933 15.5335 6.04282C15.386 5.89236 15.1804 5.8 14.954 5.8C14.5011 5.8 14.1346 6.17094 14.1346 6.6283V7.57576L14.0497 7.55195L13.8188 7.48638L13.6087 7.42829C13.6081 7.42829 13.6075 7.42803 13.6068 7.42773C13.6057 7.4273 13.6045 7.42678 13.6028 7.42678H13.5983L12.0043 6.99477C11.9343 6.9754 11.8747 7.05138 11.9104 7.11544L12.1652 7.5862C12.1796 7.62238 12.1979 7.65856 12.2168 7.69573C12.229 7.7198 12.2413 7.74428 12.253 7.76945C12.2948 7.85285 12.3365 7.94075 12.3767 8.02865C12.4125 8.10611 12.4482 8.18209 12.4899 8.26552C12.5075 8.30473 12.5253 8.34442 12.5435 8.38468C12.61 8.53254 12.6801 8.68802 12.7491 8.85547C12.8087 8.99699 12.8683 9.13851 12.9205 9.286C13.0635 9.65694 13.199 10.0532 13.3167 10.4599C13.346 10.5509 13.3694 10.639 13.3932 10.7283C13.4032 10.7661 13.4133 10.8042 13.424 10.8428L13.4404 10.9143C13.488 11.1035 13.5298 11.2912 13.5596 11.4804C13.5834 11.61 13.6057 11.7336 13.6176 11.8588C13.6355 12.0003 13.6534 12.1418 13.6594 12.2834C13.6713 12.413 13.6772 12.5485 13.6772 12.6781C13.6772 13.0088 13.6475 13.3276 13.5774 13.6286C13.573 13.6448 13.5686 13.6611 13.5642 13.6776C13.5446 13.7509 13.5243 13.8268 13.5 13.8997C13.478 13.9778 13.4495 14.056 13.4198 14.1371C13.4094 14.1658 13.3987 14.1949 13.3882 14.2245C13.3863 14.2297 13.3843 14.235 13.3823 14.2403C13.3604 14.2993 13.3381 14.3594 13.3108 14.4182C13.1633 14.7727 12.9801 15.1258 12.7909 15.4565C12.5138 15.9466 12.2352 16.3772 12.04 16.6543C12.0281 16.6722 12.0164 16.6892 12.0052 16.7056C11.9913 16.726 11.9779 16.7455 11.9655 16.7645C11.9045 16.8509 11.967 16.9731 12.0728 16.9731H14.1346V18.6014H12.0489C11.4888 18.6014 10.9704 18.284 10.7201 17.776C10.5905 17.5213 10.5398 17.2412 10.5697 16.9671C10.5771 16.8852 10.516 16.8077 10.4326 16.8077H6.2196C6.14809 16.8077 6.09 16.8658 6.09 16.9373V17.0237C6.09 19.7112 8.26056 21.8892 10.9391 21.8892H18.4965C19.9132 21.8892 20.7176 20.5983 21.5082 19.3294C21.7286 18.9757 21.948 18.6237 22.1792 18.3019C22.5948 17.7239 23.5945 17.265 23.8864 17.1399C23.9341 17.119 23.9669 17.0714 23.9669 17.0177Z" fill="white"/>
</svg>
