<svg width="29" height="29" viewBox="0 0 29 29" fill="none" xmlns="http://www.w3.org/2000/svg">
<path fill-rule="evenodd" clip-rule="evenodd" d="M14.5 29C22.5077 29 29 22.5077 29 14.5C29 6.49232 22.5094 0 14.5 0C6.49232 0 0 6.49232 0 14.5C0 22.5077 6.49232 29 14.5 29ZM10.6038 19.7409C13.3885 19.7409 15.6459 17.4834 15.6459 14.6987C15.6459 11.914 13.3885 9.65658 10.6038 9.65658C7.81908 9.65658 5.56163 11.914 5.56163 14.6987C5.56163 17.4834 7.81908 19.7409 10.6038 19.7409ZM20.352 14.6987C20.352 17.4834 19.449 19.7409 18.3351 19.7409C17.2213 19.7409 16.3183 17.4834 16.3183 14.6987C16.3183 11.914 17.2213 9.65658 18.3351 9.65658C19.449 9.65658 20.352 11.914 20.352 14.6987ZM22.0325 19.7409C22.5895 19.7409 23.041 17.4834 23.041 14.6987C23.041 11.914 22.5895 9.65658 22.0325 9.65658C21.4756 9.65658 21.0241 11.914 21.0241 14.6987C21.0241 17.4834 21.4756 19.7409 22.0325 19.7409Z" fill="white"/>
</svg>
