<svg width="29" height="29" viewBox="0 0 29 29" fill="none" xmlns="http://www.w3.org/2000/svg">
<path d="M14.5 0C6.49263 0 0 6.49263 0 14.5C0 22.5074 6.49263 29 14.5 29C22.5074 29 29 22.5074 29 14.5C29 6.49263 22.5074 0 14.5 0ZM21.4684 10.93C21.4781 11.0821 21.4781 11.2407 21.4781 11.3961C21.4781 16.1474 17.8596 21.6205 11.2472 21.6205C9.20815 21.6205 7.31797 21.0282 5.72556 20.0087C6.01685 20.0411 6.2952 20.054 6.59297 20.054C8.276 20.054 9.8231 19.4844 11.0562 18.5199C9.47679 18.4875 8.14978 17.4518 7.69665 16.0277C8.25011 16.1086 8.74855 16.1086 9.31819 15.9629C8.50492 15.7977 7.77393 15.356 7.24941 14.7129C6.72488 14.0698 6.43919 13.2649 6.44085 12.435V12.3897C6.91663 12.6584 7.47656 12.8234 8.06239 12.8461C7.56991 12.5179 7.16604 12.0732 6.88657 11.5515C6.60709 11.0299 6.46067 10.4473 6.46027 9.85547C6.46027 9.18549 6.63505 8.57377 6.949 8.04297C7.85169 9.15421 8.97812 10.0631 10.2551 10.7105C11.532 11.3579 12.9309 11.7293 14.3608 11.8007C13.8527 9.35703 15.6781 7.37946 17.8725 7.37946C18.9083 7.37946 19.8404 7.81317 20.4974 8.51228C21.3098 8.36016 22.0866 8.05591 22.7792 7.6481C22.5106 8.47991 21.9474 9.18225 21.1998 9.62567C21.9248 9.54799 22.6239 9.34732 23.2712 9.06574C22.7825 9.78426 22.1708 10.4219 21.4684 10.93Z" fill="white"/>
</svg>
